<mxfile host="app.diagrams.net" modified="2024-03-25T19:20:33.931Z" agent="Mozilla/5.0 (Windows NT 10.0; Win64; x64) AppleWebKit/537.36 (KHTML, like Gecko) Chrome/121.0.0.0 Safari/537.36 OPR/107.0.0.0" etag="rQ1EnG4q51XJXnrxlGBD" version="24.1.0" type="google">
  <diagram id="C5RBs43oDa-KdzZeNtuy" name="Page-1">
    <mxGraphModel grid="1" page="1" gridSize="10" guides="1" tooltips="1" connect="1" arrows="1" fold="1" pageScale="1" pageWidth="827" pageHeight="1169" math="0" shadow="0">
      <root>
        <mxCell id="WIyWlLk6GJQsqaUBKTNV-0" />
        <mxCell id="WIyWlLk6GJQsqaUBKTNV-1" parent="WIyWlLk6GJQsqaUBKTNV-0" />
        <mxCell id="WIyWlLk6GJQsqaUBKTNV-2" value="" style="rounded=0;html=1;jettySize=auto;orthogonalLoop=1;fontSize=11;endArrow=block;endFill=0;endSize=8;strokeWidth=1;shadow=0;labelBackgroundColor=none;edgeStyle=orthogonalEdgeStyle;" edge="1" parent="WIyWlLk6GJQsqaUBKTNV-1" source="WIyWlLk6GJQsqaUBKTNV-3" target="WIyWlLk6GJQsqaUBKTNV-6">
          <mxGeometry relative="1" as="geometry" />
        </mxCell>
        <mxCell id="WIyWlLk6GJQsqaUBKTNV-3" value="Arduino is booted" style="rounded=1;whiteSpace=wrap;html=1;fontSize=12;glass=0;strokeWidth=1;shadow=0;" vertex="1" parent="WIyWlLk6GJQsqaUBKTNV-1">
          <mxGeometry x="160" y="80" width="120" height="40" as="geometry" />
        </mxCell>
        <mxCell id="WIyWlLk6GJQsqaUBKTNV-4" value="NO" style="rounded=0;html=1;jettySize=auto;orthogonalLoop=1;fontSize=11;endArrow=block;endFill=0;endSize=8;strokeWidth=1;shadow=0;labelBackgroundColor=none;edgeStyle=orthogonalEdgeStyle;" edge="1" parent="WIyWlLk6GJQsqaUBKTNV-1" source="WIyWlLk6GJQsqaUBKTNV-6" target="0uh4qicEjyPRT4WKRGpn-0">
          <mxGeometry y="20" relative="1" as="geometry">
            <mxPoint as="offset" />
            <mxPoint x="220" y="330" as="targetPoint" />
          </mxGeometry>
        </mxCell>
        <mxCell id="WIyWlLk6GJQsqaUBKTNV-5" value="Yes" style="edgeStyle=orthogonalEdgeStyle;rounded=0;html=1;jettySize=auto;orthogonalLoop=1;fontSize=11;endArrow=block;endFill=0;endSize=8;strokeWidth=1;shadow=0;labelBackgroundColor=none;" edge="1" parent="WIyWlLk6GJQsqaUBKTNV-1" source="WIyWlLk6GJQsqaUBKTNV-6" target="WIyWlLk6GJQsqaUBKTNV-7">
          <mxGeometry y="10" relative="1" as="geometry">
            <mxPoint as="offset" />
          </mxGeometry>
        </mxCell>
        <mxCell id="WIyWlLk6GJQsqaUBKTNV-6" value="Want to load previous game?" style="rhombus;whiteSpace=wrap;html=1;shadow=0;fontFamily=Helvetica;fontSize=12;align=center;strokeWidth=1;spacing=6;spacingTop=-4;" vertex="1" parent="WIyWlLk6GJQsqaUBKTNV-1">
          <mxGeometry x="160" y="170" width="120" height="100" as="geometry" />
        </mxCell>
        <mxCell id="WIyWlLk6GJQsqaUBKTNV-7" value="Load previous game" style="rounded=1;whiteSpace=wrap;html=1;fontSize=12;glass=0;strokeWidth=1;shadow=0;" vertex="1" parent="WIyWlLk6GJQsqaUBKTNV-1">
          <mxGeometry x="340" y="200" width="120" height="40" as="geometry" />
        </mxCell>
        <mxCell id="0uh4qicEjyPRT4WKRGpn-0" value="Create new game" style="rounded=1;whiteSpace=wrap;html=1;fontSize=12;glass=0;strokeWidth=1;shadow=0;" vertex="1" parent="WIyWlLk6GJQsqaUBKTNV-1">
          <mxGeometry x="160" y="330" width="120" height="40" as="geometry" />
        </mxCell>
        <mxCell id="0uh4qicEjyPRT4WKRGpn-4" value="Preview Menu" style="rounded=1;whiteSpace=wrap;html=1;fontSize=12;glass=0;strokeWidth=1;shadow=0;" vertex="1" parent="WIyWlLk6GJQsqaUBKTNV-1">
          <mxGeometry x="340" y="450" width="120" height="40" as="geometry" />
        </mxCell>
        <mxCell id="0uh4qicEjyPRT4WKRGpn-5" value="" style="rounded=0;html=1;jettySize=auto;orthogonalLoop=1;fontSize=11;endArrow=block;endFill=0;endSize=8;strokeWidth=1;shadow=0;labelBackgroundColor=none;edgeStyle=orthogonalEdgeStyle;" edge="1" parent="WIyWlLk6GJQsqaUBKTNV-1" source="0uh4qicEjyPRT4WKRGpn-0" target="0uh4qicEjyPRT4WKRGpn-4">
          <mxGeometry y="20" relative="1" as="geometry">
            <mxPoint as="offset" />
            <mxPoint x="290" y="400" as="sourcePoint" />
            <mxPoint x="290" y="460" as="targetPoint" />
            <Array as="points">
              <mxPoint x="220" y="470" />
            </Array>
          </mxGeometry>
        </mxCell>
        <mxCell id="0uh4qicEjyPRT4WKRGpn-6" value="Successful load?" style="rhombus;whiteSpace=wrap;html=1;shadow=0;fontFamily=Helvetica;fontSize=12;align=center;strokeWidth=1;spacing=6;spacingTop=-4;" vertex="1" parent="WIyWlLk6GJQsqaUBKTNV-1">
          <mxGeometry x="340" y="300" width="120" height="100" as="geometry" />
        </mxCell>
        <mxCell id="0uh4qicEjyPRT4WKRGpn-7" value="" style="rounded=0;html=1;jettySize=auto;orthogonalLoop=1;fontSize=11;endArrow=block;endFill=0;endSize=8;strokeWidth=1;shadow=0;labelBackgroundColor=none;edgeStyle=orthogonalEdgeStyle;" edge="1" parent="WIyWlLk6GJQsqaUBKTNV-1" source="WIyWlLk6GJQsqaUBKTNV-7" target="0uh4qicEjyPRT4WKRGpn-6">
          <mxGeometry y="20" relative="1" as="geometry">
            <mxPoint as="offset" />
            <mxPoint x="230" y="280" as="sourcePoint" />
            <mxPoint x="230" y="340" as="targetPoint" />
          </mxGeometry>
        </mxCell>
        <mxCell id="0uh4qicEjyPRT4WKRGpn-8" value="NO" style="rounded=0;html=1;jettySize=auto;orthogonalLoop=1;fontSize=11;endArrow=block;endFill=0;endSize=8;strokeWidth=1;shadow=0;labelBackgroundColor=none;edgeStyle=orthogonalEdgeStyle;" edge="1" parent="WIyWlLk6GJQsqaUBKTNV-1" source="0uh4qicEjyPRT4WKRGpn-6" target="0uh4qicEjyPRT4WKRGpn-0">
          <mxGeometry y="20" relative="1" as="geometry">
            <mxPoint as="offset" />
            <mxPoint x="230" y="280" as="sourcePoint" />
            <mxPoint x="230" y="340" as="targetPoint" />
          </mxGeometry>
        </mxCell>
        <mxCell id="0uh4qicEjyPRT4WKRGpn-9" value="Yes" style="edgeStyle=orthogonalEdgeStyle;rounded=0;html=1;jettySize=auto;orthogonalLoop=1;fontSize=11;endArrow=block;endFill=0;endSize=8;strokeWidth=1;shadow=0;labelBackgroundColor=none;" edge="1" parent="WIyWlLk6GJQsqaUBKTNV-1" source="0uh4qicEjyPRT4WKRGpn-6" target="0uh4qicEjyPRT4WKRGpn-4">
          <mxGeometry x="-0.2" y="10" relative="1" as="geometry">
            <mxPoint as="offset" />
            <mxPoint x="290" y="230" as="sourcePoint" />
            <mxPoint x="350" y="230" as="targetPoint" />
          </mxGeometry>
        </mxCell>
        <mxCell id="0uh4qicEjyPRT4WKRGpn-11" value="" style="edgeStyle=orthogonalEdgeStyle;rounded=0;html=1;jettySize=auto;orthogonalLoop=1;fontSize=11;endArrow=block;endFill=0;endSize=8;strokeWidth=1;shadow=0;labelBackgroundColor=none;" edge="1" parent="WIyWlLk6GJQsqaUBKTNV-1" source="0uh4qicEjyPRT4WKRGpn-4" target="0uh4qicEjyPRT4WKRGpn-4">
          <mxGeometry x="1" y="51" relative="1" as="geometry">
            <mxPoint x="10" y="1" as="offset" />
            <mxPoint x="420" y="520" as="sourcePoint" />
            <mxPoint x="510" y="560" as="targetPoint" />
            <Array as="points">
              <mxPoint x="440" y="520" />
              <mxPoint x="490" y="520" />
              <mxPoint x="490" y="470" />
            </Array>
          </mxGeometry>
        </mxCell>
        <mxCell id="0uh4qicEjyPRT4WKRGpn-12" value="Analog Stick Movement" style="edgeLabel;html=1;align=center;verticalAlign=middle;resizable=0;points=[];" connectable="0" vertex="1" parent="0uh4qicEjyPRT4WKRGpn-11">
          <mxGeometry x="0.1869" y="1" relative="1" as="geometry">
            <mxPoint x="31" as="offset" />
          </mxGeometry>
        </mxCell>
        <mxCell id="0uh4qicEjyPRT4WKRGpn-15" value="What key?" style="rhombus;whiteSpace=wrap;html=1;" vertex="1" parent="WIyWlLk6GJQsqaUBKTNV-1">
          <mxGeometry x="360" y="585" width="80" height="80" as="geometry" />
        </mxCell>
        <mxCell id="0uh4qicEjyPRT4WKRGpn-16" value="" style="rounded=0;html=1;jettySize=auto;orthogonalLoop=1;fontSize=11;endArrow=block;endFill=0;endSize=8;strokeWidth=1;shadow=0;labelBackgroundColor=none;edgeStyle=orthogonalEdgeStyle;" edge="1" parent="WIyWlLk6GJQsqaUBKTNV-1" source="0uh4qicEjyPRT4WKRGpn-4" target="0uh4qicEjyPRT4WKRGpn-15">
          <mxGeometry y="20" relative="1" as="geometry">
            <mxPoint as="offset" />
            <mxPoint x="230" y="380" as="sourcePoint" />
            <mxPoint x="350" y="480" as="targetPoint" />
            <Array as="points">
              <mxPoint x="400" y="480" />
            </Array>
          </mxGeometry>
        </mxCell>
        <mxCell id="0uh4qicEjyPRT4WKRGpn-17" value="Keypad key pressed" style="edgeLabel;html=1;align=center;verticalAlign=middle;resizable=0;points=[];" connectable="0" vertex="1" parent="0uh4qicEjyPRT4WKRGpn-16">
          <mxGeometry x="-0.1789" relative="1" as="geometry">
            <mxPoint y="11" as="offset" />
          </mxGeometry>
        </mxCell>
        <mxCell id="0uh4qicEjyPRT4WKRGpn-22" value="" style="rounded=0;html=1;jettySize=auto;orthogonalLoop=1;fontSize=11;endArrow=block;endFill=0;endSize=8;strokeWidth=1;shadow=0;labelBackgroundColor=none;edgeStyle=orthogonalEdgeStyle;" edge="1" parent="WIyWlLk6GJQsqaUBKTNV-1" source="0uh4qicEjyPRT4WKRGpn-15" target="0uh4qicEjyPRT4WKRGpn-83">
          <mxGeometry y="20" relative="1" as="geometry">
            <mxPoint as="offset" />
            <mxPoint x="500" y="689.97" as="sourcePoint" />
            <mxPoint x="400" y="785" as="targetPoint" />
            <Array as="points" />
          </mxGeometry>
        </mxCell>
        <mxCell id="0uh4qicEjyPRT4WKRGpn-23" value="Transfer Key" style="edgeLabel;html=1;align=center;verticalAlign=middle;resizable=0;points=[];" connectable="0" vertex="1" parent="0uh4qicEjyPRT4WKRGpn-22">
          <mxGeometry x="-0.1789" relative="1" as="geometry">
            <mxPoint y="-2" as="offset" />
          </mxGeometry>
        </mxCell>
        <mxCell id="0uh4qicEjyPRT4WKRGpn-24" value="" style="rounded=0;html=1;jettySize=auto;orthogonalLoop=1;fontSize=11;endArrow=block;endFill=0;endSize=8;strokeWidth=1;shadow=0;labelBackgroundColor=none;edgeStyle=orthogonalEdgeStyle;" edge="1" parent="WIyWlLk6GJQsqaUBKTNV-1" source="0uh4qicEjyPRT4WKRGpn-15" target="0uh4qicEjyPRT4WKRGpn-28">
          <mxGeometry y="20" relative="1" as="geometry">
            <mxPoint as="offset" />
            <mxPoint x="250" y="630" as="sourcePoint" />
            <mxPoint x="90" y="700" as="targetPoint" />
            <Array as="points">
              <mxPoint x="-101" y="625" />
            </Array>
          </mxGeometry>
        </mxCell>
        <mxCell id="0uh4qicEjyPRT4WKRGpn-25" value="Add Key" style="edgeLabel;html=1;align=center;verticalAlign=middle;resizable=0;points=[];" connectable="0" vertex="1" parent="0uh4qicEjyPRT4WKRGpn-24">
          <mxGeometry x="-0.1789" relative="1" as="geometry">
            <mxPoint x="-210" y="11" as="offset" />
          </mxGeometry>
        </mxCell>
        <mxCell id="0uh4qicEjyPRT4WKRGpn-26" value="" style="rounded=0;html=1;jettySize=auto;orthogonalLoop=1;fontSize=11;endArrow=block;endFill=0;endSize=8;strokeWidth=1;shadow=0;labelBackgroundColor=none;edgeStyle=orthogonalEdgeStyle;" edge="1" parent="WIyWlLk6GJQsqaUBKTNV-1" source="0uh4qicEjyPRT4WKRGpn-15" target="0uh4qicEjyPRT4WKRGpn-49">
          <mxGeometry y="20" relative="1" as="geometry">
            <mxPoint as="offset" />
            <mxPoint x="530" y="640" as="sourcePoint" />
            <mxPoint x="670" y="680" as="targetPoint" />
            <Array as="points">
              <mxPoint x="777" y="625" />
            </Array>
          </mxGeometry>
        </mxCell>
        <mxCell id="0uh4qicEjyPRT4WKRGpn-27" value="Subtract Key" style="edgeLabel;html=1;align=center;verticalAlign=middle;resizable=0;points=[];" connectable="0" vertex="1" parent="0uh4qicEjyPRT4WKRGpn-26">
          <mxGeometry x="-0.1789" relative="1" as="geometry">
            <mxPoint x="-29" y="15" as="offset" />
          </mxGeometry>
        </mxCell>
        <mxCell id="0uh4qicEjyPRT4WKRGpn-28" value="Introduce amount" style="rounded=1;whiteSpace=wrap;html=1;fontSize=12;glass=0;strokeWidth=1;shadow=0;" vertex="1" parent="WIyWlLk6GJQsqaUBKTNV-1">
          <mxGeometry x="-161.43" y="680" width="120" height="40" as="geometry" />
        </mxCell>
        <mxCell id="0uh4qicEjyPRT4WKRGpn-29" value="Bank has money?" style="rhombus;whiteSpace=wrap;html=1;" vertex="1" parent="WIyWlLk6GJQsqaUBKTNV-1">
          <mxGeometry x="-141.43" y="760" width="80" height="80" as="geometry" />
        </mxCell>
        <mxCell id="0uh4qicEjyPRT4WKRGpn-30" value="" style="rounded=0;html=1;jettySize=auto;orthogonalLoop=1;fontSize=11;endArrow=block;endFill=0;endSize=8;strokeWidth=1;shadow=0;labelBackgroundColor=none;edgeStyle=orthogonalEdgeStyle;" edge="1" parent="WIyWlLk6GJQsqaUBKTNV-1" source="0uh4qicEjyPRT4WKRGpn-28" target="0uh4qicEjyPRT4WKRGpn-29">
          <mxGeometry y="20" relative="1" as="geometry">
            <mxPoint as="offset" />
            <mxPoint x="218.57" y="675" as="sourcePoint" />
            <mxPoint x="218.57" y="795" as="targetPoint" />
            <Array as="points" />
          </mxGeometry>
        </mxCell>
        <mxCell id="0uh4qicEjyPRT4WKRGpn-32" value="" style="rounded=0;html=1;jettySize=auto;orthogonalLoop=1;fontSize=11;endArrow=block;endFill=0;endSize=8;strokeWidth=1;shadow=0;labelBackgroundColor=none;edgeStyle=orthogonalEdgeStyle;" edge="1" parent="WIyWlLk6GJQsqaUBKTNV-1" source="0uh4qicEjyPRT4WKRGpn-29" target="0uh4qicEjyPRT4WKRGpn-33">
          <mxGeometry y="20" relative="1" as="geometry">
            <mxPoint as="offset" />
            <mxPoint x="-101.68" y="850" as="sourcePoint" />
            <mxPoint x="-101.43" y="900" as="targetPoint" />
            <Array as="points" />
          </mxGeometry>
        </mxCell>
        <mxCell id="0uh4qicEjyPRT4WKRGpn-34" value="Yes" style="edgeLabel;html=1;align=center;verticalAlign=middle;resizable=0;points=[];" connectable="0" vertex="1" parent="0uh4qicEjyPRT4WKRGpn-32">
          <mxGeometry x="-0.2944" relative="1" as="geometry">
            <mxPoint as="offset" />
          </mxGeometry>
        </mxCell>
        <mxCell id="0uh4qicEjyPRT4WKRGpn-33" value="Present Card" style="rounded=1;whiteSpace=wrap;html=1;fontSize=12;glass=0;strokeWidth=1;shadow=0;" vertex="1" parent="WIyWlLk6GJQsqaUBKTNV-1">
          <mxGeometry x="-161.43" y="900" width="120" height="40" as="geometry" />
        </mxCell>
        <mxCell id="0uh4qicEjyPRT4WKRGpn-35" value="" style="rounded=0;html=1;jettySize=auto;orthogonalLoop=1;fontSize=11;endArrow=block;endFill=0;endSize=8;strokeWidth=1;shadow=0;labelBackgroundColor=none;edgeStyle=orthogonalEdgeStyle;" edge="1" parent="WIyWlLk6GJQsqaUBKTNV-1" source="0uh4qicEjyPRT4WKRGpn-29" target="0uh4qicEjyPRT4WKRGpn-4">
          <mxGeometry y="20" relative="1" as="geometry">
            <mxPoint as="offset" />
            <mxPoint x="100" y="850" as="sourcePoint" />
            <mxPoint x="100" y="910" as="targetPoint" />
            <Array as="points">
              <mxPoint x="-210" y="800" />
              <mxPoint x="-210" y="470" />
            </Array>
          </mxGeometry>
        </mxCell>
        <mxCell id="0uh4qicEjyPRT4WKRGpn-37" value="NO" style="edgeLabel;html=1;align=center;verticalAlign=middle;resizable=0;points=[];" connectable="0" vertex="1" parent="0uh4qicEjyPRT4WKRGpn-35">
          <mxGeometry x="-0.9325" relative="1" as="geometry">
            <mxPoint as="offset" />
          </mxGeometry>
        </mxCell>
        <mxCell id="0uh4qicEjyPRT4WKRGpn-39" value="" style="rounded=0;html=1;jettySize=auto;orthogonalLoop=1;fontSize=11;endArrow=block;endFill=0;endSize=8;strokeWidth=1;shadow=0;labelBackgroundColor=none;edgeStyle=orthogonalEdgeStyle;" edge="1" parent="WIyWlLk6GJQsqaUBKTNV-1" source="0uh4qicEjyPRT4WKRGpn-33" target="0uh4qicEjyPRT4WKRGpn-46">
          <mxGeometry y="20" relative="1" as="geometry">
            <mxPoint as="offset" />
            <mxPoint x="28.149999999999977" y="960" as="sourcePoint" />
            <mxPoint x="-101.42999999999984" y="990" as="targetPoint" />
            <Array as="points" />
          </mxGeometry>
        </mxCell>
        <mxCell id="0uh4qicEjyPRT4WKRGpn-46" value="Add Money" style="rounded=1;whiteSpace=wrap;html=1;fontSize=12;glass=0;strokeWidth=1;shadow=0;" vertex="1" parent="WIyWlLk6GJQsqaUBKTNV-1">
          <mxGeometry x="-161.43" y="1020" width="120" height="40" as="geometry" />
        </mxCell>
        <mxCell id="0uh4qicEjyPRT4WKRGpn-47" value="" style="rounded=0;html=1;jettySize=auto;orthogonalLoop=1;fontSize=11;endArrow=block;endFill=0;endSize=8;strokeWidth=1;shadow=0;labelBackgroundColor=none;edgeStyle=orthogonalEdgeStyle;" edge="1" parent="WIyWlLk6GJQsqaUBKTNV-1" source="0uh4qicEjyPRT4WKRGpn-46" target="0uh4qicEjyPRT4WKRGpn-4">
          <mxGeometry y="20" relative="1" as="geometry">
            <mxPoint as="offset" />
            <mxPoint x="60" y="1040" as="sourcePoint" />
            <mxPoint x="350" y="480" as="targetPoint" />
            <Array as="points">
              <mxPoint x="-210" y="1040" />
              <mxPoint x="-210" y="470" />
            </Array>
          </mxGeometry>
        </mxCell>
        <mxCell id="0uh4qicEjyPRT4WKRGpn-49" value="Introduce amount" style="rounded=1;whiteSpace=wrap;html=1;fontSize=12;glass=0;strokeWidth=1;shadow=0;" vertex="1" parent="WIyWlLk6GJQsqaUBKTNV-1">
          <mxGeometry x="716.57" y="670" width="120" height="40" as="geometry" />
        </mxCell>
        <mxCell id="0uh4qicEjyPRT4WKRGpn-50" value="" style="rounded=0;html=1;jettySize=auto;orthogonalLoop=1;fontSize=11;endArrow=block;endFill=0;endSize=8;strokeWidth=1;shadow=0;labelBackgroundColor=none;edgeStyle=orthogonalEdgeStyle;" edge="1" parent="WIyWlLk6GJQsqaUBKTNV-1" source="0uh4qicEjyPRT4WKRGpn-49">
          <mxGeometry y="20" relative="1" as="geometry">
            <mxPoint as="offset" />
            <mxPoint x="646.57" y="760" as="sourcePoint" />
            <mxPoint x="776.57" y="750" as="targetPoint" />
            <Array as="points" />
          </mxGeometry>
        </mxCell>
        <mxCell id="0uh4qicEjyPRT4WKRGpn-51" value="Present Card" style="rounded=1;whiteSpace=wrap;html=1;fontSize=12;glass=0;strokeWidth=1;shadow=0;" vertex="1" parent="WIyWlLk6GJQsqaUBKTNV-1">
          <mxGeometry x="716.57" y="750" width="120" height="40" as="geometry" />
        </mxCell>
        <mxCell id="0uh4qicEjyPRT4WKRGpn-52" value="Player Has Money?" style="rhombus;whiteSpace=wrap;html=1;" vertex="1" parent="WIyWlLk6GJQsqaUBKTNV-1">
          <mxGeometry x="736.57" y="830" width="80" height="80" as="geometry" />
        </mxCell>
        <mxCell id="0uh4qicEjyPRT4WKRGpn-53" value="" style="rounded=0;html=1;jettySize=auto;orthogonalLoop=1;fontSize=11;endArrow=block;endFill=0;endSize=8;strokeWidth=1;shadow=0;labelBackgroundColor=none;edgeStyle=orthogonalEdgeStyle;" edge="1" parent="WIyWlLk6GJQsqaUBKTNV-1" source="0uh4qicEjyPRT4WKRGpn-51" target="0uh4qicEjyPRT4WKRGpn-52">
          <mxGeometry y="20" relative="1" as="geometry">
            <mxPoint as="offset" />
            <mxPoint x="706.57" y="850" as="sourcePoint" />
            <mxPoint x="706.57" y="910" as="targetPoint" />
            <Array as="points" />
          </mxGeometry>
        </mxCell>
        <mxCell id="0uh4qicEjyPRT4WKRGpn-55" value="" style="rounded=0;html=1;jettySize=auto;orthogonalLoop=1;fontSize=11;endArrow=block;endFill=0;endSize=8;strokeWidth=1;shadow=0;labelBackgroundColor=none;edgeStyle=orthogonalEdgeStyle;" edge="1" parent="WIyWlLk6GJQsqaUBKTNV-1" target="0uh4qicEjyPRT4WKRGpn-78">
          <mxGeometry y="20" relative="1" as="geometry">
            <mxPoint as="offset" />
            <mxPoint x="776.1500000000001" y="910" as="sourcePoint" />
            <mxPoint x="696.5294117647059" y="970" as="targetPoint" />
            <Array as="points">
              <mxPoint x="776" y="930" />
              <mxPoint x="697" y="930" />
            </Array>
          </mxGeometry>
        </mxCell>
        <mxCell id="0uh4qicEjyPRT4WKRGpn-57" value="Yes" style="edgeLabel;html=1;align=center;verticalAlign=middle;resizable=0;points=[];" connectable="0" vertex="1" parent="0uh4qicEjyPRT4WKRGpn-55">
          <mxGeometry x="-0.3852" y="1" relative="1" as="geometry">
            <mxPoint as="offset" />
          </mxGeometry>
        </mxCell>
        <mxCell id="0uh4qicEjyPRT4WKRGpn-58" value="" style="rounded=0;html=1;jettySize=auto;orthogonalLoop=1;fontSize=11;endArrow=block;endFill=0;endSize=8;strokeWidth=1;shadow=0;labelBackgroundColor=none;edgeStyle=orthogonalEdgeStyle;" edge="1" parent="WIyWlLk6GJQsqaUBKTNV-1" source="0uh4qicEjyPRT4WKRGpn-52">
          <mxGeometry y="20" relative="1" as="geometry">
            <mxPoint as="offset" />
            <mxPoint x="786.1500000000001" y="920" as="sourcePoint" />
            <mxPoint x="866.5111764705883" y="970.0588235294115" as="targetPoint" />
            <Array as="points">
              <mxPoint x="776.57" y="930" />
              <mxPoint x="866.57" y="930" />
            </Array>
          </mxGeometry>
        </mxCell>
        <mxCell id="0uh4qicEjyPRT4WKRGpn-59" value="NO" style="edgeLabel;html=1;align=center;verticalAlign=middle;resizable=0;points=[];" connectable="0" vertex="1" parent="0uh4qicEjyPRT4WKRGpn-58">
          <mxGeometry x="-0.3852" y="1" relative="1" as="geometry">
            <mxPoint as="offset" />
          </mxGeometry>
        </mxCell>
        <mxCell id="0uh4qicEjyPRT4WKRGpn-62" value="Declare Bankruptcye" style="rounded=1;whiteSpace=wrap;html=1;fontSize=12;glass=0;strokeWidth=1;shadow=0;" vertex="1" parent="WIyWlLk6GJQsqaUBKTNV-1">
          <mxGeometry x="806.57" y="970" width="120" height="40" as="geometry" />
        </mxCell>
        <mxCell id="0uh4qicEjyPRT4WKRGpn-63" value="Player Decision" style="rhombus;whiteSpace=wrap;html=1;" vertex="1" parent="WIyWlLk6GJQsqaUBKTNV-1">
          <mxGeometry x="826.57" y="1040" width="80" height="80" as="geometry" />
        </mxCell>
        <mxCell id="0uh4qicEjyPRT4WKRGpn-64" value="" style="rounded=0;html=1;jettySize=auto;orthogonalLoop=1;fontSize=11;endArrow=block;endFill=0;endSize=8;strokeWidth=1;shadow=0;labelBackgroundColor=none;edgeStyle=orthogonalEdgeStyle;" edge="1" parent="WIyWlLk6GJQsqaUBKTNV-1" source="0uh4qicEjyPRT4WKRGpn-62" target="0uh4qicEjyPRT4WKRGpn-63">
          <mxGeometry y="20" relative="1" as="geometry">
            <mxPoint as="offset" />
            <mxPoint x="786.57" y="800" as="sourcePoint" />
            <mxPoint x="786.57" y="840" as="targetPoint" />
            <Array as="points" />
          </mxGeometry>
        </mxCell>
        <mxCell id="0uh4qicEjyPRT4WKRGpn-65" value="" style="rounded=0;html=1;jettySize=auto;orthogonalLoop=1;fontSize=11;endArrow=block;endFill=0;endSize=8;strokeWidth=1;shadow=0;labelBackgroundColor=none;edgeStyle=orthogonalEdgeStyle;" edge="1" parent="WIyWlLk6GJQsqaUBKTNV-1" source="0uh4qicEjyPRT4WKRGpn-63" target="0uh4qicEjyPRT4WKRGpn-4">
          <mxGeometry y="20" relative="1" as="geometry">
            <mxPoint as="offset" />
            <mxPoint x="770" y="1030" as="sourcePoint" />
            <mxPoint x="840" y="1090" as="targetPoint" />
            <Array as="points">
              <mxPoint x="1050" y="1090" />
              <mxPoint x="1050" y="470" />
            </Array>
          </mxGeometry>
        </mxCell>
        <mxCell id="0uh4qicEjyPRT4WKRGpn-67" value="NO" style="edgeLabel;html=1;align=center;verticalAlign=middle;resizable=0;points=[];" connectable="0" vertex="1" parent="0uh4qicEjyPRT4WKRGpn-65">
          <mxGeometry x="-0.8965" y="1" relative="1" as="geometry">
            <mxPoint as="offset" />
          </mxGeometry>
        </mxCell>
        <mxCell id="0uh4qicEjyPRT4WKRGpn-68" value="" style="rounded=0;html=1;jettySize=auto;orthogonalLoop=1;fontSize=11;endArrow=block;endFill=0;endSize=8;strokeWidth=1;shadow=0;labelBackgroundColor=none;edgeStyle=orthogonalEdgeStyle;" edge="1" parent="WIyWlLk6GJQsqaUBKTNV-1" source="0uh4qicEjyPRT4WKRGpn-63" target="0uh4qicEjyPRT4WKRGpn-70">
          <mxGeometry y="20" relative="1" as="geometry">
            <mxPoint as="offset" />
            <mxPoint x="866.1500000000001" y="1135" as="sourcePoint" />
            <mxPoint x="866.1500000000001" y="1165" as="targetPoint" />
            <Array as="points" />
          </mxGeometry>
        </mxCell>
        <mxCell id="0uh4qicEjyPRT4WKRGpn-69" value="Yes" style="edgeLabel;html=1;align=center;verticalAlign=middle;resizable=0;points=[];" connectable="0" vertex="1" parent="0uh4qicEjyPRT4WKRGpn-68">
          <mxGeometry x="-0.3644" y="2" relative="1" as="geometry">
            <mxPoint as="offset" />
          </mxGeometry>
        </mxCell>
        <mxCell id="0uh4qicEjyPRT4WKRGpn-70" value="Add money to community space, and remove player from game" style="rounded=1;whiteSpace=wrap;html=1;fontSize=12;glass=0;strokeWidth=1;shadow=0;" vertex="1" parent="WIyWlLk6GJQsqaUBKTNV-1">
          <mxGeometry x="806.57" y="1170" width="120" height="60" as="geometry" />
        </mxCell>
        <mxCell id="0uh4qicEjyPRT4WKRGpn-71" value="" style="rounded=0;html=1;jettySize=auto;orthogonalLoop=1;fontSize=11;endArrow=block;endFill=0;endSize=8;strokeWidth=1;shadow=0;labelBackgroundColor=none;edgeStyle=orthogonalEdgeStyle;" edge="1" parent="WIyWlLk6GJQsqaUBKTNV-1" source="0uh4qicEjyPRT4WKRGpn-70" target="0uh4qicEjyPRT4WKRGpn-4">
          <mxGeometry y="20" relative="1" as="geometry">
            <mxPoint as="offset" />
            <mxPoint x="810" y="1100" as="sourcePoint" />
            <mxPoint x="470" y="480" as="targetPoint" />
            <Array as="points">
              <mxPoint x="1050" y="1210" />
              <mxPoint x="1050" y="470" />
            </Array>
          </mxGeometry>
        </mxCell>
        <mxCell id="0uh4qicEjyPRT4WKRGpn-72" value="NO" style="edgeLabel;html=1;align=center;verticalAlign=middle;resizable=0;points=[];" connectable="0" vertex="1" parent="0uh4qicEjyPRT4WKRGpn-71">
          <mxGeometry x="-0.8965" y="1" relative="1" as="geometry">
            <mxPoint as="offset" />
          </mxGeometry>
        </mxCell>
        <mxCell id="0uh4qicEjyPRT4WKRGpn-78" value="Remove Money" style="rounded=1;whiteSpace=wrap;html=1;fontSize=12;glass=0;strokeWidth=1;shadow=0;" vertex="1" parent="WIyWlLk6GJQsqaUBKTNV-1">
          <mxGeometry x="630" y="1060" width="120" height="40" as="geometry" />
        </mxCell>
        <mxCell id="0uh4qicEjyPRT4WKRGpn-81" value="" style="rounded=0;html=1;jettySize=auto;orthogonalLoop=1;fontSize=11;endArrow=block;endFill=0;endSize=8;strokeWidth=1;shadow=0;labelBackgroundColor=none;edgeStyle=orthogonalEdgeStyle;" edge="1" parent="WIyWlLk6GJQsqaUBKTNV-1" source="0uh4qicEjyPRT4WKRGpn-78" target="0uh4qicEjyPRT4WKRGpn-4">
          <mxGeometry y="20" relative="1" as="geometry">
            <mxPoint as="offset" />
            <mxPoint x="560" y="1100" as="sourcePoint" />
            <mxPoint x="470" y="480" as="targetPoint" />
            <Array as="points">
              <mxPoint x="697" y="1320" />
              <mxPoint x="1050" y="1320" />
              <mxPoint x="1050" y="470" />
            </Array>
          </mxGeometry>
        </mxCell>
        <mxCell id="0uh4qicEjyPRT4WKRGpn-83" value="Introduce amount" style="rounded=1;whiteSpace=wrap;html=1;fontSize=12;glass=0;strokeWidth=1;shadow=0;" vertex="1" parent="WIyWlLk6GJQsqaUBKTNV-1">
          <mxGeometry x="340.00000000000006" y="730" width="120" height="40" as="geometry" />
        </mxCell>
        <mxCell id="0uh4qicEjyPRT4WKRGpn-84" value="" style="rounded=0;html=1;jettySize=auto;orthogonalLoop=1;fontSize=11;endArrow=block;endFill=0;endSize=8;strokeWidth=1;shadow=0;labelBackgroundColor=none;edgeStyle=orthogonalEdgeStyle;" edge="1" parent="WIyWlLk6GJQsqaUBKTNV-1" source="0uh4qicEjyPRT4WKRGpn-83" target="0uh4qicEjyPRT4WKRGpn-85">
          <mxGeometry y="20" relative="1" as="geometry">
            <mxPoint as="offset" />
            <mxPoint x="400.43" y="790" as="sourcePoint" />
            <mxPoint x="400" y="810" as="targetPoint" />
            <Array as="points" />
          </mxGeometry>
        </mxCell>
        <mxCell id="0uh4qicEjyPRT4WKRGpn-85" value="Present Donor Card" style="rounded=1;whiteSpace=wrap;html=1;fontSize=12;glass=0;strokeWidth=1;shadow=0;" vertex="1" parent="WIyWlLk6GJQsqaUBKTNV-1">
          <mxGeometry x="340.00000000000006" y="810" width="120" height="40" as="geometry" />
        </mxCell>
        <mxCell id="0uh4qicEjyPRT4WKRGpn-86" value="Player Has Money?" style="rhombus;whiteSpace=wrap;html=1;" vertex="1" parent="WIyWlLk6GJQsqaUBKTNV-1">
          <mxGeometry x="360.00000000000006" y="880" width="80" height="80" as="geometry" />
        </mxCell>
        <mxCell id="0uh4qicEjyPRT4WKRGpn-87" value="" style="rounded=0;html=1;jettySize=auto;orthogonalLoop=1;fontSize=11;endArrow=block;endFill=0;endSize=8;strokeWidth=1;shadow=0;labelBackgroundColor=none;edgeStyle=orthogonalEdgeStyle;" edge="1" parent="WIyWlLk6GJQsqaUBKTNV-1" source="0uh4qicEjyPRT4WKRGpn-85" target="0uh4qicEjyPRT4WKRGpn-86">
          <mxGeometry y="20" relative="1" as="geometry">
            <mxPoint as="offset" />
            <mxPoint x="490" y="860" as="sourcePoint" />
            <mxPoint x="490" y="900" as="targetPoint" />
            <Array as="points" />
          </mxGeometry>
        </mxCell>
        <mxCell id="0uh4qicEjyPRT4WKRGpn-88" value="" style="rounded=0;html=1;jettySize=auto;orthogonalLoop=1;fontSize=11;endArrow=block;endFill=0;endSize=8;strokeWidth=1;shadow=0;labelBackgroundColor=none;edgeStyle=orthogonalEdgeStyle;" edge="1" parent="WIyWlLk6GJQsqaUBKTNV-1" source="0uh4qicEjyPRT4WKRGpn-86" target="0uh4qicEjyPRT4WKRGpn-91">
          <mxGeometry y="20" relative="1" as="geometry">
            <mxPoint as="offset" />
            <mxPoint x="419.1500000000001" y="1020" as="sourcePoint" />
            <mxPoint x="400" y="1010" as="targetPoint" />
            <Array as="points" />
          </mxGeometry>
        </mxCell>
        <mxCell id="0uh4qicEjyPRT4WKRGpn-89" value="Yes" style="edgeLabel;html=1;align=center;verticalAlign=middle;resizable=0;points=[];" connectable="0" vertex="1" parent="0uh4qicEjyPRT4WKRGpn-88">
          <mxGeometry x="-0.3852" y="1" relative="1" as="geometry">
            <mxPoint as="offset" />
          </mxGeometry>
        </mxCell>
        <mxCell id="0uh4qicEjyPRT4WKRGpn-91" value="Present Receiving Card" style="rounded=1;whiteSpace=wrap;html=1;fontSize=12;glass=0;strokeWidth=1;shadow=0;" vertex="1" parent="WIyWlLk6GJQsqaUBKTNV-1">
          <mxGeometry x="340.00000000000006" y="1020" width="120" height="40" as="geometry" />
        </mxCell>
        <mxCell id="0uh4qicEjyPRT4WKRGpn-92" value="" style="rounded=0;html=1;jettySize=auto;orthogonalLoop=1;fontSize=11;endArrow=block;endFill=0;endSize=8;strokeWidth=1;shadow=0;labelBackgroundColor=none;edgeStyle=orthogonalEdgeStyle;" edge="1" parent="WIyWlLk6GJQsqaUBKTNV-1" source="0uh4qicEjyPRT4WKRGpn-86" target="0uh4qicEjyPRT4WKRGpn-4">
          <mxGeometry y="20" relative="1" as="geometry">
            <mxPoint as="offset" />
            <mxPoint x="560" y="1025" as="sourcePoint" />
            <mxPoint x="560" y="1055" as="targetPoint" />
            <Array as="points">
              <mxPoint x="560" y="920" />
              <mxPoint x="560" y="1320" />
              <mxPoint x="1050" y="1320" />
              <mxPoint x="1050" y="470" />
            </Array>
          </mxGeometry>
        </mxCell>
        <mxCell id="0uh4qicEjyPRT4WKRGpn-93" value="NO" style="edgeLabel;html=1;align=center;verticalAlign=middle;resizable=0;points=[];" connectable="0" vertex="1" parent="0uh4qicEjyPRT4WKRGpn-92">
          <mxGeometry x="-0.9412" y="-1" relative="1" as="geometry">
            <mxPoint x="1" as="offset" />
          </mxGeometry>
        </mxCell>
        <mxCell id="0uh4qicEjyPRT4WKRGpn-94" value="" style="rounded=0;html=1;jettySize=auto;orthogonalLoop=1;fontSize=11;endArrow=block;endFill=0;endSize=8;strokeWidth=1;shadow=0;labelBackgroundColor=none;edgeStyle=orthogonalEdgeStyle;" edge="1" parent="WIyWlLk6GJQsqaUBKTNV-1" source="0uh4qicEjyPRT4WKRGpn-91" target="0uh4qicEjyPRT4WKRGpn-4">
          <mxGeometry y="20" relative="1" as="geometry">
            <mxPoint as="offset" />
            <mxPoint x="450" y="930" as="sourcePoint" />
            <mxPoint x="470" y="480" as="targetPoint" />
            <Array as="points">
              <mxPoint x="400" y="1320" />
              <mxPoint x="1050" y="1320" />
              <mxPoint x="1050" y="470" />
            </Array>
          </mxGeometry>
        </mxCell>
        <mxCell id="Iw8B2UOPY_jWgS4i6qtT-0" value="Add or remove?" style="rounded=1;whiteSpace=wrap;html=1;" vertex="1" parent="WIyWlLk6GJQsqaUBKTNV-1">
          <mxGeometry x="110" y="680" width="120" height="60" as="geometry" />
        </mxCell>
        <mxCell id="Iw8B2UOPY_jWgS4i6qtT-2" value="" style="rounded=0;html=1;jettySize=auto;orthogonalLoop=1;fontSize=11;endArrow=block;endFill=0;endSize=8;strokeWidth=1;shadow=0;labelBackgroundColor=none;edgeStyle=orthogonalEdgeStyle;" edge="1" parent="WIyWlLk6GJQsqaUBKTNV-1" source="0uh4qicEjyPRT4WKRGpn-15" target="Iw8B2UOPY_jWgS4i6qtT-0">
          <mxGeometry y="20" relative="1" as="geometry">
            <mxPoint as="offset" />
            <mxPoint x="370" y="635" as="sourcePoint" />
            <mxPoint x="-91" y="690" as="targetPoint" />
            <Array as="points">
              <mxPoint x="170" y="625" />
            </Array>
          </mxGeometry>
        </mxCell>
        <mxCell id="Iw8B2UOPY_jWgS4i6qtT-3" value="Community Button" style="edgeLabel;html=1;align=center;verticalAlign=middle;resizable=0;points=[];" connectable="0" vertex="1" parent="Iw8B2UOPY_jWgS4i6qtT-2">
          <mxGeometry x="-0.1789" relative="1" as="geometry">
            <mxPoint x="-40" y="25" as="offset" />
          </mxGeometry>
        </mxCell>
        <mxCell id="Iw8B2UOPY_jWgS4i6qtT-4" value="Action" style="rhombus;whiteSpace=wrap;html=1;" vertex="1" parent="WIyWlLk6GJQsqaUBKTNV-1">
          <mxGeometry x="130" y="770" width="80" height="80" as="geometry" />
        </mxCell>
        <mxCell id="Iw8B2UOPY_jWgS4i6qtT-7" value="" style="rounded=0;html=1;jettySize=auto;orthogonalLoop=1;fontSize=11;endArrow=block;endFill=0;endSize=8;strokeWidth=1;shadow=0;labelBackgroundColor=none;edgeStyle=orthogonalEdgeStyle;" edge="1" parent="WIyWlLk6GJQsqaUBKTNV-1" source="Iw8B2UOPY_jWgS4i6qtT-0" target="Iw8B2UOPY_jWgS4i6qtT-4">
          <mxGeometry y="20" relative="1" as="geometry">
            <mxPoint as="offset" />
            <mxPoint x="130" y="740" as="sourcePoint" />
            <mxPoint x="130" y="780" as="targetPoint" />
            <Array as="points" />
          </mxGeometry>
        </mxCell>
        <mxCell id="Iw8B2UOPY_jWgS4i6qtT-8" value="Quantity?" style="rounded=1;whiteSpace=wrap;html=1;" vertex="1" parent="WIyWlLk6GJQsqaUBKTNV-1">
          <mxGeometry x="40" y="880" width="70" height="40" as="geometry" />
        </mxCell>
        <mxCell id="Iw8B2UOPY_jWgS4i6qtT-9" value="" style="rounded=0;html=1;jettySize=auto;orthogonalLoop=1;fontSize=11;endArrow=block;endFill=0;endSize=8;strokeWidth=1;shadow=0;labelBackgroundColor=none;edgeStyle=orthogonalEdgeStyle;" edge="1" parent="WIyWlLk6GJQsqaUBKTNV-1" source="Iw8B2UOPY_jWgS4i6qtT-4" target="Iw8B2UOPY_jWgS4i6qtT-8">
          <mxGeometry y="20" relative="1" as="geometry">
            <mxPoint as="offset" />
            <mxPoint x="20" y="800" as="sourcePoint" />
            <mxPoint x="20" y="860" as="targetPoint" />
            <Array as="points" />
          </mxGeometry>
        </mxCell>
        <mxCell id="Iw8B2UOPY_jWgS4i6qtT-10" value="Add" style="edgeLabel;html=1;align=center;verticalAlign=middle;resizable=0;points=[];" connectable="0" vertex="1" parent="Iw8B2UOPY_jWgS4i6qtT-9">
          <mxGeometry x="-0.2944" relative="1" as="geometry">
            <mxPoint x="14" as="offset" />
          </mxGeometry>
        </mxCell>
        <mxCell id="Iw8B2UOPY_jWgS4i6qtT-11" value="Present Receiver card" style="rounded=1;whiteSpace=wrap;html=1;" vertex="1" parent="WIyWlLk6GJQsqaUBKTNV-1">
          <mxGeometry x="230" y="880" width="80" height="50" as="geometry" />
        </mxCell>
        <mxCell id="Iw8B2UOPY_jWgS4i6qtT-12" value="" style="rounded=0;html=1;jettySize=auto;orthogonalLoop=1;fontSize=11;endArrow=block;endFill=0;endSize=8;strokeWidth=1;shadow=0;labelBackgroundColor=none;edgeStyle=orthogonalEdgeStyle;" edge="1" parent="WIyWlLk6GJQsqaUBKTNV-1" source="Iw8B2UOPY_jWgS4i6qtT-4" target="Iw8B2UOPY_jWgS4i6qtT-11">
          <mxGeometry y="20" relative="1" as="geometry">
            <mxPoint as="offset" />
            <mxPoint x="140" y="820" as="sourcePoint" />
            <mxPoint x="85" y="890" as="targetPoint" />
            <Array as="points" />
          </mxGeometry>
        </mxCell>
        <mxCell id="Iw8B2UOPY_jWgS4i6qtT-13" value="Remove" style="edgeLabel;html=1;align=center;verticalAlign=middle;resizable=0;points=[];" connectable="0" vertex="1" parent="Iw8B2UOPY_jWgS4i6qtT-12">
          <mxGeometry x="-0.2944" relative="1" as="geometry">
            <mxPoint x="-14" as="offset" />
          </mxGeometry>
        </mxCell>
        <mxCell id="Iw8B2UOPY_jWgS4i6qtT-15" value="" style="rounded=0;html=1;jettySize=auto;orthogonalLoop=1;fontSize=11;endArrow=block;endFill=0;endSize=8;strokeWidth=1;shadow=0;labelBackgroundColor=none;edgeStyle=orthogonalEdgeStyle;" edge="1" parent="WIyWlLk6GJQsqaUBKTNV-1" source="Iw8B2UOPY_jWgS4i6qtT-11" target="0uh4qicEjyPRT4WKRGpn-4">
          <mxGeometry y="20" relative="1" as="geometry">
            <mxPoint as="offset" />
            <mxPoint x="210" y="1100" as="sourcePoint" />
            <mxPoint x="210" y="1150" as="targetPoint" />
            <Array as="points">
              <mxPoint x="270" y="1320" />
              <mxPoint x="1050" y="1320" />
              <mxPoint x="1050" y="470" />
            </Array>
          </mxGeometry>
        </mxCell>
        <mxCell id="Iw8B2UOPY_jWgS4i6qtT-17" value="Player has money?" style="rhombus;whiteSpace=wrap;html=1;" vertex="1" parent="WIyWlLk6GJQsqaUBKTNV-1">
          <mxGeometry x="35" y="1060" width="80" height="80" as="geometry" />
        </mxCell>
        <mxCell id="Iw8B2UOPY_jWgS4i6qtT-19" value="Present Card" style="rounded=1;whiteSpace=wrap;html=1;fontSize=12;glass=0;strokeWidth=1;shadow=0;" vertex="1" parent="WIyWlLk6GJQsqaUBKTNV-1">
          <mxGeometry x="15" y="970" width="120" height="40" as="geometry" />
        </mxCell>
        <mxCell id="Iw8B2UOPY_jWgS4i6qtT-20" value="" style="rounded=0;html=1;jettySize=auto;orthogonalLoop=1;fontSize=11;endArrow=block;endFill=0;endSize=8;strokeWidth=1;shadow=0;labelBackgroundColor=none;edgeStyle=orthogonalEdgeStyle;" edge="1" parent="WIyWlLk6GJQsqaUBKTNV-1" source="Iw8B2UOPY_jWgS4i6qtT-8" target="Iw8B2UOPY_jWgS4i6qtT-19">
          <mxGeometry y="20" relative="1" as="geometry">
            <mxPoint as="offset" />
            <mxPoint x="-91" y="950" as="sourcePoint" />
            <mxPoint x="-91" y="1030" as="targetPoint" />
            <Array as="points" />
          </mxGeometry>
        </mxCell>
        <mxCell id="Iw8B2UOPY_jWgS4i6qtT-21" value="" style="rounded=0;html=1;jettySize=auto;orthogonalLoop=1;fontSize=11;endArrow=block;endFill=0;endSize=8;strokeWidth=1;shadow=0;labelBackgroundColor=none;edgeStyle=orthogonalEdgeStyle;" edge="1" parent="WIyWlLk6GJQsqaUBKTNV-1" source="Iw8B2UOPY_jWgS4i6qtT-19" target="Iw8B2UOPY_jWgS4i6qtT-17">
          <mxGeometry y="20" relative="1" as="geometry">
            <mxPoint as="offset" />
            <mxPoint x="-81" y="960" as="sourcePoint" />
            <mxPoint x="-81" y="1040" as="targetPoint" />
            <Array as="points" />
          </mxGeometry>
        </mxCell>
        <mxCell id="Iw8B2UOPY_jWgS4i6qtT-22" value="" style="rounded=0;html=1;jettySize=auto;orthogonalLoop=1;fontSize=11;endArrow=block;endFill=0;endSize=8;strokeWidth=1;shadow=0;labelBackgroundColor=none;edgeStyle=orthogonalEdgeStyle;" edge="1" parent="WIyWlLk6GJQsqaUBKTNV-1" source="Iw8B2UOPY_jWgS4i6qtT-17" target="Iw8B2UOPY_jWgS4i6qtT-23">
          <mxGeometry y="20" relative="1" as="geometry">
            <mxPoint as="offset" />
            <mxPoint x="74.58" y="1150" as="sourcePoint" />
            <mxPoint x="75" y="1180" as="targetPoint" />
            <Array as="points" />
          </mxGeometry>
        </mxCell>
        <mxCell id="Iw8B2UOPY_jWgS4i6qtT-24" value="Yes" style="edgeLabel;html=1;align=center;verticalAlign=middle;resizable=0;points=[];" connectable="0" vertex="1" parent="Iw8B2UOPY_jWgS4i6qtT-22">
          <mxGeometry x="-0.3083" relative="1" as="geometry">
            <mxPoint as="offset" />
          </mxGeometry>
        </mxCell>
        <mxCell id="Iw8B2UOPY_jWgS4i6qtT-23" value="Add Money" style="rounded=1;whiteSpace=wrap;html=1;fontSize=12;glass=0;strokeWidth=1;shadow=0;" vertex="1" parent="WIyWlLk6GJQsqaUBKTNV-1">
          <mxGeometry x="15" y="1180" width="120" height="40" as="geometry" />
        </mxCell>
        <mxCell id="Iw8B2UOPY_jWgS4i6qtT-25" value="" style="rounded=0;html=1;jettySize=auto;orthogonalLoop=1;fontSize=11;endArrow=block;endFill=0;endSize=8;strokeWidth=1;shadow=0;labelBackgroundColor=none;edgeStyle=orthogonalEdgeStyle;" edge="1" parent="WIyWlLk6GJQsqaUBKTNV-1" source="Iw8B2UOPY_jWgS4i6qtT-23" target="0uh4qicEjyPRT4WKRGpn-4">
          <mxGeometry y="20" relative="1" as="geometry">
            <mxPoint as="offset" />
            <mxPoint x="280" y="940" as="sourcePoint" />
            <mxPoint x="470" y="480" as="targetPoint" />
            <Array as="points">
              <mxPoint x="80" y="1320" />
              <mxPoint x="1050" y="1320" />
              <mxPoint x="1050" y="470" />
            </Array>
          </mxGeometry>
        </mxCell>
        <mxCell id="Iw8B2UOPY_jWgS4i6qtT-26" value="" style="rounded=0;html=1;jettySize=auto;orthogonalLoop=1;fontSize=11;endArrow=block;endFill=0;endSize=8;strokeWidth=1;shadow=0;labelBackgroundColor=none;edgeStyle=orthogonalEdgeStyle;" edge="1" parent="WIyWlLk6GJQsqaUBKTNV-1" source="Iw8B2UOPY_jWgS4i6qtT-17">
          <mxGeometry y="20" relative="1" as="geometry">
            <mxPoint as="offset" />
            <mxPoint x="200" y="1060" as="sourcePoint" />
            <mxPoint x="190" y="1100" as="targetPoint" />
            <Array as="points" />
          </mxGeometry>
        </mxCell>
        <mxCell id="Iw8B2UOPY_jWgS4i6qtT-33" value="No" style="edgeLabel;html=1;align=center;verticalAlign=middle;resizable=0;points=[];" connectable="0" vertex="1" parent="Iw8B2UOPY_jWgS4i6qtT-26">
          <mxGeometry x="-0.1082" y="3" relative="1" as="geometry">
            <mxPoint as="offset" />
          </mxGeometry>
        </mxCell>
        <mxCell id="Iw8B2UOPY_jWgS4i6qtT-28" value="" style="ellipse;whiteSpace=wrap;html=1;align=center;aspect=fixed;fillColor=none;strokeColor=none;resizable=0;perimeter=centerPerimeter;rotatable=0;allowArrows=0;points=[];outlineConnect=1;" vertex="1" parent="WIyWlLk6GJQsqaUBKTNV-1">
          <mxGeometry x="200" y="1070" width="10" height="10" as="geometry" />
        </mxCell>
        <mxCell id="Iw8B2UOPY_jWgS4i6qtT-30" value="" style="ellipse;whiteSpace=wrap;html=1;aspect=fixed;strokeColor=#67AB9F;" vertex="1" parent="WIyWlLk6GJQsqaUBKTNV-1">
          <mxGeometry x="190" y="1090" width="20" height="20" as="geometry" />
        </mxCell>
        <mxCell id="Iw8B2UOPY_jWgS4i6qtT-31" value="" style="ellipse;whiteSpace=wrap;html=1;aspect=fixed;fillStyle=solid;fillColor=#67AB9F;" vertex="1" parent="WIyWlLk6GJQsqaUBKTNV-1">
          <mxGeometry x="960" y="850" width="20" height="20" as="geometry" />
        </mxCell>
        <mxCell id="Iw8B2UOPY_jWgS4i6qtT-32" value="" style="rounded=0;html=1;jettySize=auto;orthogonalLoop=1;fontSize=11;endArrow=block;endFill=0;endSize=8;strokeWidth=1;shadow=0;labelBackgroundColor=none;edgeStyle=orthogonalEdgeStyle;" edge="1" parent="WIyWlLk6GJQsqaUBKTNV-1" source="Iw8B2UOPY_jWgS4i6qtT-31" target="0uh4qicEjyPRT4WKRGpn-62">
          <mxGeometry y="20" relative="1" as="geometry">
            <mxPoint as="offset" />
            <mxPoint x="876.57" y="930" as="sourcePoint" />
            <mxPoint x="867" y="930" as="targetPoint" />
            <Array as="points" />
          </mxGeometry>
        </mxCell>
        <mxCell id="Iw8B2UOPY_jWgS4i6qtT-34" value="" style="rounded=0;html=1;jettySize=auto;orthogonalLoop=1;fontSize=11;endArrow=block;endFill=0;endSize=8;strokeWidth=1;shadow=0;labelBackgroundColor=none;edgeStyle=orthogonalEdgeStyle;" edge="1" parent="WIyWlLk6GJQsqaUBKTNV-1" source="0uh4qicEjyPRT4WKRGpn-15" target="0uh4qicEjyPRT4WKRGpn-62">
          <mxGeometry y="20" relative="1" as="geometry">
            <mxPoint as="offset" />
            <mxPoint x="450" y="635" as="sourcePoint" />
            <mxPoint x="787" y="680" as="targetPoint" />
            <Array as="points">
              <mxPoint x="867" y="625" />
            </Array>
          </mxGeometry>
        </mxCell>
        <mxCell id="Iw8B2UOPY_jWgS4i6qtT-35" value="&lt;span style=&quot;font-size: 12px; text-wrap: wrap; background-color: rgb(251, 251, 251);&quot;&gt;Bankruptcye key&lt;/span&gt;" style="edgeLabel;html=1;align=center;verticalAlign=middle;resizable=0;points=[];" connectable="0" vertex="1" parent="Iw8B2UOPY_jWgS4i6qtT-34">
          <mxGeometry x="-0.1789" relative="1" as="geometry">
            <mxPoint x="149" y="75" as="offset" />
          </mxGeometry>
        </mxCell>
      </root>
    </mxGraphModel>
  </diagram>
</mxfile>
